<svg xmlns="http://www.w3.org/2000/svg" width="295.6426696777344" height="296.78741455078125" viewBox="-55.82499313354492 -38.69426727294922 295.6426696777344 296.78741455078125"><title>Neo4j Graph Visualization</title><desc>Created using Neo4j (http://www.neo4j.com/)</desc><g class="layer relationships"><g class="relationship" transform="translate(121.45269933131081 229.09315118268245) rotate(254.3202043316487)"><path class="outline" fill="#A5ABB6" stroke="none" d="M 25 0.5 L 35.33235591027237 0.5 L 35.33235591027237 -0.5 L 25 -0.5 Z M 80.89485591027237 0.5 L 91.22721182054474 0.5 L 91.22721182054474 3.5 L 98.22721182054474 0 L 91.22721182054474 -3.5 L 91.22721182054474 -0.5 L 80.89485591027237 -0.5 Z"/><text text-anchor="middle" pointer-events="none" font-size="8px" fill="#000000" x="58.11360591027237" y="3" transform="rotate(180 58.11360591027237 0)" font-family="sans-serif">ACTED_IN</text></g><g class="relationship" transform="translate(191.74047859054758 177.68527130288126) rotate(212.98471837943566)"><path class="outline" fill="#A5ABB6" stroke="none" d="M 25 0.5 L 35.46727859145768 0.5 L 35.46727859145768 -0.5 L 25 -0.5 Z M 81.02977859145767 0.5 L 91.49705718291536 0.5 L 91.49705718291536 3.5 L 98.49705718291536 0 L 91.49705718291536 -3.5 L 91.49705718291536 -0.5 L 81.02977859145767 -0.5 Z"/><text text-anchor="middle" pointer-events="none" font-size="8px" fill="#000000" x="58.24852859145768" y="3" transform="rotate(180 58.24852859145768 0)" font-family="sans-serif">ACTED_IN</text></g><g class="relationship" transform="translate(181.54365623042014 28.8074794164649) rotate(498.84051052171066)"><path class="outline" fill="#A5ABB6" stroke="none" d="M 25 0.5 L 40.63804336456043 0.5 L 40.63804336456043 -0.5 L 25 -0.5 Z M 76.41148086456043 0.5 L 92.04952422912086 0.5 L 92.04952422912086 3.5 L 99.04952422912086 0 L 92.04952422912086 -3.5 L 92.04952422912086 -0.5 L 76.41148086456043 -0.5 Z"/><text text-anchor="middle" pointer-events="none" font-size="8px" fill="#000000" x="58.52476211456043" y="3" transform="rotate(180 58.52476211456043 0)" font-family="sans-serif">WROTE</text></g><g class="relationship" transform="translate(210.81769206503157 100.15425253972174) rotate(535.2015926364484)"><path class="outline" fill="#A5ABB6" stroke="none" d="M 25 0.5 L 40.16325074271062 0.5 L 40.16325074271062 -0.5 L 25 -0.5 Z M 75.93668824271063 0.5 L 91.09993898542125 0.5 L 91.09993898542125 3.5 L 98.09993898542125 0 L 91.09993898542125 -3.5 L 91.09993898542125 -0.5 L 75.93668824271063 -0.5 Z"/><text text-anchor="middle" pointer-events="none" font-size="8px" fill="#000000" x="58.04996949271062" y="3" transform="rotate(180 58.04996949271062 0)" font-family="sans-serif">WROTE</text></g><g class="relationship" transform="translate(114.73887855694949 -9.694265419388715) rotate(462.4790848010726)"><path class="outline" fill="#A5ABB6" stroke="none" d="M 25 0.5 L 35.245239113879485 0.5 L 35.245239113879485 -0.5 L 25 -0.5 Z M 80.80773911387948 0.5 L 91.05297822775897 0.5 L 91.05297822775897 3.5 L 98.05297822775897 0 L 91.05297822775897 -3.5 L 91.05297822775897 -0.5 L 80.80773911387948 -0.5 Z"/><text text-anchor="middle" pointer-events="none" font-size="8px" fill="#000000" x="58.026489113879485" y="3" transform="rotate(180 58.026489113879485 0)" font-family="sans-serif">ACTED_IN</text></g><g class="relationship" transform="translate(35.36789911234458 -1.1583911222648835) rotate(424.6901381940369)"><path class="outline" fill="#A5ABB6" stroke="none" d="M 25 0.5 L 35.4493156692415 0.5 L 35.4493156692415 -0.5 L 25 -0.5 Z M 81.0118156692415 0.5 L 91.461131338483 0.5 L 91.461131338483 3.5 L 98.461131338483 0 L 91.461131338483 -3.5 L 91.461131338483 -0.5 L 81.0118156692415 -0.5 Z"/><text text-anchor="middle" pointer-events="none" font-size="8px" fill="#000000" x="58.2305656692415" y="3" font-family="sans-serif">ACTED_IN</text></g><g class="relationship" transform="translate(-24.957343968341437 61.64884120105908) rotate(383.339030651399)"><path class="outline" fill="#A5ABB6" stroke="none" d="M 25 0.5 L 34.647699738578595 0.5 L 34.647699738578595 -0.5 L 25 -0.5 Z M 81.5383247385786 0.5 L 91.18602447715719 0.5 L 91.18602447715719 3.5 L 98.18602447715719 0 L 91.18602447715719 -3.5 L 91.18602447715719 -0.5 L 81.5383247385786 -0.5 Z"/><text text-anchor="middle" pointer-events="none" font-size="8px" fill="#000000" x="58.093012238578595" y="3" font-family="sans-serif">DIRECTED</text></g><g class="relationship" transform="translate(-26.824993566406754 151.8148478187234) rotate(340.2132302370014)"><path class="outline" fill="#A5ABB6" stroke="none" d="M 25 0.5 L 39.707438270457196 0.5 L 39.707438270457196 -0.5 L 25 -0.5 Z M 75.4808757704572 0.5 L 90.18831404091439 0.5 L 90.18831404091439 3.5 L 97.18831404091439 0 L 90.18831404091439 -3.5 L 90.18831404091439 -0.5 L 75.4808757704572 -0.5 Z"/><text text-anchor="middle" pointer-events="none" font-size="8px" fill="#000000" x="57.594157020457196" y="3" font-family="sans-serif">WROTE</text></g><g class="relationship" transform="translate(31.85436079899164 218.91442298735683) rotate(297.4304026501244)"><path class="outline" fill="#A5ABB6" stroke="none" d="M 25 0.5 L 34.819684320548596 0.5 L 34.819684320548596 -0.5 L 25 -0.5 Z M 80.38218432054859 0.5 L 90.20186864109719 0.5 L 90.20186864109719 3.5 L 97.20186864109719 0 L 90.20186864109719 -3.5 L 90.20186864109719 -0.5 L 80.38218432054859 -0.5 Z"/><text text-anchor="middle" pointer-events="none" font-size="8px" fill="#000000" x="57.600934320548596" y="3" font-family="sans-serif">ACTED_IN</text></g></g><g class="layer nodes"><g class="node" transform="translate(88.1491956123794,110.45158016683438)"><circle class="outline" cx="0" cy="0" r="25" fill="#57C7E3" stroke="#23b3d7" stroke-width="2px"/><text text-anchor="middle" pointer-events="none" font-family="sans-serif" dy="1.5625" font-size="25" fill="#2A2C34"/><text text-anchor="middle" pointer-events="none" font-family="sans-serif" dy="1.5625" font-size="25" fill="#2A2C34"/><text text-anchor="middle" pointer-events="none" font-family="sans-serif" dy="1.5625" font-size="25" fill="#2A2C34"/><text text-anchor="middle" pointer-events="none" x="0" y="-5" font-size="10px" fill="#2A2C34" font-family="sans-serif"> Captain</text><text text-anchor="middle" pointer-events="none" x="0" y="5" font-size="10px" fill="#2A2C34" font-family="sans-serif"> America:</text><text text-anchor="middle" pointer-events="none" x="0" y="15" font-size="10px" fill="#2A2C34" font-family="sans-serif"> The Fi…</text></g><g class="node" transform="translate(121.45269933131081,229.09315118268245)"><circle class="outline" cx="0" cy="0" r="25" fill="#F79767" stroke="#f36924" stroke-width="2px"/><text text-anchor="middle" pointer-events="none" font-family="sans-serif" dy="1.5625" font-size="25" fill="#FFFFFF"/><text text-anchor="middle" pointer-events="none" font-family="sans-serif" dy="1.5625" font-size="25" fill="#FFFFFF"/><text text-anchor="middle" pointer-events="none" x="0" y="0" font-size="10px" fill="#FFFFFF" font-family="sans-serif"> Hayley</text><text text-anchor="middle" pointer-events="none" x="0" y="10" font-size="10px" fill="#FFFFFF" font-family="sans-serif"> Atwell</text></g><g class="node" transform="translate(191.74047859054758,177.68527130288126)"><circle class="outline" cx="0" cy="0" r="25" fill="#F79767" stroke="#f36924" stroke-width="2px"/><text text-anchor="middle" pointer-events="none" font-family="sans-serif" dy="1.5625" font-size="25" fill="#FFFFFF"/><text text-anchor="middle" pointer-events="none" x="0" y="5" font-size="10px" fill="#FFFFFF" font-family="sans-serif"> Sebastian</text></g><g class="node" transform="translate(181.54365623042014,28.8074794164649)"><circle class="outline" cx="0" cy="0" r="25" fill="#F79767" stroke="#f36924" stroke-width="2px"/><text text-anchor="middle" pointer-events="none" font-family="sans-serif" dy="1.5625" font-size="25" fill="#FFFFFF"/><text text-anchor="middle" pointer-events="none" x="0" y="5" font-size="10px" fill="#FFFFFF" font-family="sans-serif"> Christop…</text></g><g class="node" transform="translate(210.81769206503157,100.15425253972174)"><circle class="outline" cx="0" cy="0" r="25" fill="#F79767" stroke="#f36924" stroke-width="2px"/><text text-anchor="middle" pointer-events="none" font-family="sans-serif" dy="1.5625" font-size="25" fill="#FFFFFF"/><text text-anchor="middle" pointer-events="none" font-family="sans-serif" dy="1.5625" font-size="25" fill="#FFFFFF"/><text text-anchor="middle" pointer-events="none" x="0" y="0" font-size="10px" fill="#FFFFFF" font-family="sans-serif"> Stephen</text><text text-anchor="middle" pointer-events="none" x="0" y="10" font-size="10px" fill="#FFFFFF" font-family="sans-serif"> McFeely</text></g><g class="node" transform="translate(114.73887855694949,-9.694265419388715)"><circle class="outline" cx="0" cy="0" r="25" fill="#F79767" stroke="#f36924" stroke-width="2px"/><text text-anchor="middle" pointer-events="none" font-family="sans-serif" dy="1.5625" font-size="25" fill="#FFFFFF"/><text text-anchor="middle" pointer-events="none" font-family="sans-serif" dy="1.5625" font-size="25" fill="#FFFFFF"/><text text-anchor="middle" pointer-events="none" font-family="sans-serif" dy="1.5625" font-size="25" fill="#FFFFFF"/><text text-anchor="middle" pointer-events="none" x="0" y="-5" font-size="10px" fill="#FFFFFF" font-family="sans-serif"> Samuel</text><text text-anchor="middle" pointer-events="none" x="0" y="5" font-size="10px" fill="#FFFFFF" font-family="sans-serif"> L.</text><text text-anchor="middle" pointer-events="none" x="0" y="15" font-size="10px" fill="#FFFFFF" font-family="sans-serif"> Jackson</text></g><g class="node" transform="translate(35.36789911234458,-1.1583911222648835)"><circle class="outline" cx="0" cy="0" r="25" fill="#F79767" stroke="#f36924" stroke-width="2px"/><text text-anchor="middle" pointer-events="none" font-family="sans-serif" dy="1.5625" font-size="25" fill="#FFFFFF"/><text text-anchor="middle" pointer-events="none" font-family="sans-serif" dy="1.5625" font-size="25" fill="#FFFFFF"/><text text-anchor="middle" pointer-events="none" x="0" y="0" font-size="10px" fill="#FFFFFF" font-family="sans-serif"> Chris</text><text text-anchor="middle" pointer-events="none" x="0" y="10" font-size="10px" fill="#FFFFFF" font-family="sans-serif"> Evans</text></g><g class="node" transform="translate(-24.957343968341437,61.64884120105908)"><circle class="outline" cx="0" cy="0" r="25" fill="#F79767" stroke="#f36924" stroke-width="2px"/><text text-anchor="middle" pointer-events="none" font-family="sans-serif" dy="1.5625" font-size="25" fill="#FFFFFF"/><text text-anchor="middle" pointer-events="none" font-family="sans-serif" dy="1.5625" font-size="25" fill="#FFFFFF"/><text text-anchor="middle" pointer-events="none" x="0" y="0" font-size="10px" fill="#FFFFFF" font-family="sans-serif"> Joe</text><text text-anchor="middle" pointer-events="none" x="0" y="10" font-size="10px" fill="#FFFFFF" font-family="sans-serif"> Johnston</text></g><g class="node" transform="translate(-26.824993566406754,151.8148478187234)"><circle class="outline" cx="0" cy="0" r="25" fill="#F79767" stroke="#f36924" stroke-width="2px"/><text text-anchor="middle" pointer-events="none" font-family="sans-serif" dy="1.5625" font-size="25" fill="#FFFFFF"/><text text-anchor="middle" pointer-events="none" font-family="sans-serif" dy="1.5625" font-size="25" fill="#FFFFFF"/><text text-anchor="middle" pointer-events="none" x="0" y="0" font-size="10px" fill="#FFFFFF" font-family="sans-serif"> Joe</text><text text-anchor="middle" pointer-events="none" x="0" y="10" font-size="10px" fill="#FFFFFF" font-family="sans-serif"> Simon</text></g><g class="node" transform="translate(31.85436079899164,218.91442298735683)"><circle class="outline" cx="0" cy="0" r="25" fill="#F79767" stroke="#f36924" stroke-width="2px"/><text text-anchor="middle" pointer-events="none" font-family="sans-serif" dy="1.5625" font-size="25" fill="#FFFFFF"/><text text-anchor="middle" pointer-events="none" font-family="sans-serif" dy="1.5625" font-size="25" fill="#FFFFFF"/><text text-anchor="middle" pointer-events="none" x="0" y="0" font-size="10px" fill="#FFFFFF" font-family="sans-serif"> Hugo</text><text text-anchor="middle" pointer-events="none" x="0" y="10" font-size="10px" fill="#FFFFFF" font-family="sans-serif"> Weaving</text></g></g></svg>