<svg xmlns="http://www.w3.org/2000/svg" width="300.4776306152344" height="603.3670043945312" viewBox="-55.94034957885742 -174.67648315429688 300.4776306152344 603.3670043945312"><title>Neo4j Graph Visualization</title><desc>Created using Neo4j (http://www.neo4j.com/)</desc><g class="layer relationships"><g class="relationship" transform="translate(215.5372725953648 322.3686390555288) rotate(496.23314078934095)"><path class="outline" fill="#A5ABB6" stroke="none" d="M 25 0.5 L 25.906197019989598 0.5 L 25.906197019989598 -0.5 L 25 -0.5 Z M 78.8749470199896 0.5 L 79.7811440399792 0.5 L 79.7811440399792 3.5 L 86.7811440399792 0 L 79.7811440399792 -3.5 L 79.7811440399792 -0.5 L 78.8749470199896 -0.5 Z"/><text text-anchor="middle" pointer-events="none" font-size="8px" fill="#000000" x="52.3905720199896" y="3" transform="rotate(180 52.3905720199896 0)" font-family="sans-serif">DESTINAT…</text></g><g class="relationship" transform="translate(215.5372725953648 322.3686390555288) rotate(218.06464573381095)"><path class="outline" fill="#A5ABB6" stroke="none" d="M 25 0.5 L 36.57718085184017 0.5 L 36.57718085184017 -0.5 L 25 -0.5 Z M 71.02249335184017 0.5 L 82.59967420368034 0.5 L 82.59967420368034 3.5 L 89.59967420368034 0 L 82.59967420368034 -3.5 L 82.59967420368034 -0.5 L 71.02249335184017 -0.5 Z"/><text text-anchor="middle" pointer-events="none" font-size="8px" fill="#000000" x="53.79983710184017" y="3" transform="rotate(180 53.79983710184017 0)" font-family="sans-serif">ORIGIN</text></g><g class="relationship" transform="translate(186.45446654440653 139.73208088398027) rotate(478.63539461602795)"><path class="outline" fill="#A5ABB6" stroke="none" d="M 25 0.5 L 30.697024940011907 0.5 L 30.697024940011907 -0.5 L 25 -0.5 Z M 89.88843119001191 0.5 L 95.58545613002381 0.5 L 95.58545613002381 3.5 L 102.58545613002381 0 L 95.58545613002381 -3.5 L 95.58545613002381 -0.5 L 89.88843119001191 -0.5 Z"/><text text-anchor="middle" pointer-events="none" font-size="8px" fill="#000000" x="60.29272806501191" y="3" transform="rotate(180 60.29272806501191 0)" font-family="sans-serif">DESTINATION</text></g><g class="relationship" transform="translate(186.45446654440653 139.73208088398027) rotate(227.02663708611914)"><path class="outline" fill="#A5ABB6" stroke="none" d="M 25 0.5 L 44.72361340446574 0.5 L 44.72361340446574 -0.5 L 25 -0.5 Z M 79.16892590446574 0.5 L 98.89253930893148 0.5 L 98.89253930893148 3.5 L 105.89253930893148 0 L 98.89253930893148 -3.5 L 98.89253930893148 -0.5 L 79.16892590446574 -0.5 Z"/><text text-anchor="middle" pointer-events="none" font-size="8px" fill="#000000" x="61.94626965446574" y="3" transform="rotate(180 61.94626965446574 0)" font-family="sans-serif">ORIGIN</text></g><g class="relationship" transform="translate(165.98958702344098 -49.2101844343528) rotate(486.42658677711256)"><path class="outline" fill="#A5ABB6" stroke="none" d="M 25 0.5 L 37.175620212026544 0.5 L 37.175620212026544 -0.5 L 25 -0.5 Z M 71.62093271202654 0.5 L 83.79655292405309 0.5 L 83.79655292405309 3.5 L 90.79655292405309 0 L 83.79655292405309 -3.5 L 83.79655292405309 -0.5 L 71.62093271202654 -0.5 Z"/><text text-anchor="middle" pointer-events="none" font-size="8px" fill="#000000" x="54.398276462026544" y="3" transform="rotate(180 54.398276462026544 0)" font-family="sans-serif">ORIGIN</text></g><g class="relationship" transform="translate(165.98958702344098 -49.2101844343528) rotate(218.01356069738313)"><path class="outline" fill="#A5ABB6" stroke="none" d="M 25 0.5 L 45.2241896757009 0.5 L 45.2241896757009 -0.5 L 25 -0.5 Z M 104.4155959257009 0.5 L 124.6397856014018 0.5 L 124.6397856014018 3.5 L 131.6397856014018 0 L 124.6397856014018 -3.5 L 124.6397856014018 -0.5 L 104.4155959257009 -0.5 Z"/><text text-anchor="middle" pointer-events="none" font-size="8px" fill="#000000" x="74.8198928007009" y="3" transform="rotate(180 74.8198928007009 0)" font-family="sans-serif">DESTINATION</text></g><g class="relationship" transform="translate(132.68712985863814 -98.76372030982867) rotate(463.9512972741254)"><path class="outline" fill="#A5ABB6" stroke="none" d="M 25 0.5 L 52.80924369552433 0.5 L 52.80924369552433 -0.5 L 25 -0.5 Z M 87.25455619552433 0.5 L 115.06379989104866 0.5 L 115.06379989104866 3.5 L 122.06379989104866 0 L 115.06379989104866 -3.5 L 115.06379989104866 -0.5 L 87.25455619552433 -0.5 Z"/><text text-anchor="middle" pointer-events="none" font-size="8px" fill="#000000" x="70.03189994552433" y="3" transform="rotate(180 70.03189994552433 0)" font-family="sans-serif">ORIGIN</text></g><g class="relationship" transform="translate(132.68712985863814 -98.76372030982867) rotate(207.5026088348837)"><path class="outline" fill="#A5ABB6" stroke="none" d="M 25 0.5 L 25.626611690043553 0.5 L 25.626611690043553 -0.5 L 25 -0.5 Z M 68.96254919004355 0.5 L 69.5891608800871 0.5 L 69.5891608800871 3.5 L 76.5891608800871 0 L 69.5891608800871 -3.5 L 69.5891608800871 -0.5 L 68.96254919004355 -0.5 Z"/><text text-anchor="middle" pointer-events="none" font-size="8px" fill="#000000" x="47.29458044004355" y="3" transform="rotate(180 47.29458044004355 0)" font-family="sans-serif">DESTIN…</text></g><g class="relationship" transform="translate(116.97001645519536 149.94630833527773) rotate(445.3142803878673)"><path class="outline" fill="#A5ABB6" stroke="none" d="M 25 0.5 L 25.885604052267084 0.5 L 25.885604052267084 -0.5 L 25 -0.5 Z M 69.22154155226708 0.5 L 70.10714560453417 0.5 L 70.10714560453417 3.5 L 77.10714560453417 0 L 70.10714560453417 -3.5 L 70.10714560453417 -0.5 L 69.22154155226708 -0.5 Z"/><text text-anchor="middle" pointer-events="none" font-size="8px" fill="#000000" x="47.553572802267084" y="3" font-family="sans-serif">DESTIN…</text></g><g class="relationship" transform="translate(116.97001645519536 149.94630833527773) rotate(259.44958601942886)"><path class="outline" fill="#A5ABB6" stroke="none" d="M 25 0.5 L 33.18085766693561 0.5 L 33.18085766693561 -0.5 L 25 -0.5 Z M 67.62617016693561 0.5 L 75.80702783387122 0.5 L 75.80702783387122 3.5 L 82.80702783387122 0 L 75.80702783387122 -3.5 L 75.80702783387122 -0.5 L 67.62617016693561 -0.5 Z"/><text text-anchor="middle" pointer-events="none" font-size="8px" fill="#000000" x="50.40351391693561" y="3" transform="rotate(180 50.40351391693561 0)" font-family="sans-serif">ORIGIN</text></g><g class="relationship" transform="translate(39.967429994307956 159.30571733554814) rotate(407.27539854360816)"><path class="outline" fill="#A5ABB6" stroke="none" d="M 25 0.5 L 29.798072935245244 0.5 L 29.798072935245244 -0.5 L 25 -0.5 Z M 88.98947918524524 0.5 L 93.78755212049049 0.5 L 93.78755212049049 3.5 L 100.78755212049049 0 L 93.78755212049049 -3.5 L 93.78755212049049 -0.5 L 88.98947918524524 -0.5 Z"/><text text-anchor="middle" pointer-events="none" font-size="8px" fill="#000000" x="59.393776060245244" y="3" font-family="sans-serif">DESTINATION</text></g><g class="relationship" transform="translate(39.967429994307956 159.30571733554814) rotate(296.40233503452106)"><path class="outline" fill="#A5ABB6" stroke="none" d="M 25 0.5 L 43.66535858122131 0.5 L 43.66535858122131 -0.5 L 25 -0.5 Z M 78.11067108122131 0.5 L 96.77602966244262 0.5 L 96.77602966244262 3.5 L 103.77602966244262 0 L 96.77602966244262 -3.5 L 96.77602966244262 -0.5 L 78.11067108122131 -0.5 Z"/><text text-anchor="middle" pointer-events="none" font-size="8px" fill="#000000" x="60.88801483122131" y="3" font-family="sans-serif">ORIGIN</text></g><g class="relationship" transform="translate(28.287533052033503 -45.57085252245827) rotate(412.402615101117)"><path class="outline" fill="#A5ABB6" stroke="none" d="M 25 0.5 L 35.77786298075116 0.5 L 35.77786298075116 -0.5 L 25 -0.5 Z M 70.22317548075117 0.5 L 81.00103846150232 0.5 L 81.00103846150232 3.5 L 88.00103846150232 0 L 81.00103846150232 -3.5 L 81.00103846150232 -0.5 L 70.22317548075117 -0.5 Z"/><text text-anchor="middle" pointer-events="none" font-size="8px" fill="#000000" x="53.00051923075116" y="3" font-family="sans-serif">ORIGIN</text></g><g class="relationship" transform="translate(28.287533052033503 -45.57085252245827) rotate(278.12462951315774)"><path class="outline" fill="#A5ABB6" stroke="none" d="M 25 0.5 L 25.39231740571649 0.5 L 25.39231740571649 -0.5 L 25 -0.5 Z M 68.72825490571648 0.5 L 69.12057231143298 0.5 L 69.12057231143298 3.5 L 76.12057231143298 0 L 69.12057231143298 -3.5 L 69.12057231143298 -0.5 L 68.72825490571648 -0.5 Z"/><text text-anchor="middle" pointer-events="none" font-size="8px" fill="#000000" x="47.06028615571649" y="3" font-family="sans-serif">DESTIN…</text></g><g class="relationship" transform="translate(-26.94035028813485 -22.85105494619624) rotate(388.28346951629004)"><path class="outline" fill="#A5ABB6" stroke="none" d="M 25 0.5 L 49.77975482187881 0.5 L 49.77975482187881 -0.5 L 25 -0.5 Z M 84.22506732187881 0.5 L 109.00482214375762 0.5 L 109.00482214375762 3.5 L 116.00482214375762 0 L 109.00482214375762 -3.5 L 109.00482214375762 -0.5 L 84.22506732187881 -0.5 Z"/><text text-anchor="middle" pointer-events="none" font-size="8px" fill="#000000" x="67.00241107187881" y="3" font-family="sans-serif">ORIGIN</text></g><g class="relationship" transform="translate(-26.94035028813485 -22.85105494619624) rotate(299.50976948260336)"><path class="outline" fill="#A5ABB6" stroke="none" d="M 25 0.5 L 37.4715803972545 0.5 L 37.4715803972545 -0.5 L 25 -0.5 Z M 96.6629866472545 0.5 L 109.134567044509 0.5 L 109.134567044509 3.5 L 116.134567044509 0 L 109.134567044509 -3.5 L 109.134567044509 -0.5 L 96.6629866472545 -0.5 Z"/><text text-anchor="middle" pointer-events="none" font-size="8px" fill="#000000" x="67.0672835222545" y="3" font-family="sans-serif">DESTINATION</text></g><g class="relationship" transform="translate(87.24365378280694 -57.328408253987085) rotate(444.3690557102132)"><path class="outline" fill="#A5ABB6" stroke="none" d="M 25 0.5 L 30.168041646104683 0.5 L 30.168041646104683 -0.5 L 25 -0.5 Z M 64.61335414610468 0.5 L 69.78139579220937 0.5 L 69.78139579220937 3.5 L 76.78139579220937 0 L 69.78139579220937 -3.5 L 69.78139579220937 -0.5 L 64.61335414610468 -0.5 Z"/><text text-anchor="middle" pointer-events="none" font-size="8px" fill="#000000" x="47.39069789610468" y="3" font-family="sans-serif">ORIGIN</text></g><g class="relationship" transform="translate(87.24365378280694 -57.328408253987085) rotate(243.18075512519079)"><path class="outline" fill="#A5ABB6" stroke="none" d="M 25 0.5 L 27.219062124783356 0.5 L 27.219062124783356 -0.5 L 25 -0.5 Z M 64.77765587478336 0.5 L 66.99671799956671 0.5 L 66.99671799956671 3.5 L 73.99671799956671 0 L 66.99671799956671 -3.5 L 66.99671799956671 -0.5 L 64.77765587478336 -0.5 Z"/><text text-anchor="middle" pointer-events="none" font-size="8px" fill="#000000" x="45.998358999783356" y="3" transform="rotate(180 45.998358999783356 0)" font-family="sans-serif">DESTI…</text></g><g class="relationship" transform="translate(46.06044919244834 335.31375864278823) rotate(395.95518643918945)"><path class="outline" fill="#A5ABB6" stroke="none" d="M 25 0.5 L 26.985236374223227 0.5 L 26.985236374223227 -0.5 L 25 -0.5 Z M 75.65711137422323 0.5 L 77.64234774844645 0.5 L 77.64234774844645 3.5 L 84.64234774844645 0 L 77.64234774844645 -3.5 L 77.64234774844645 -0.5 L 75.65711137422323 -0.5 Z"/><text text-anchor="middle" pointer-events="none" font-size="8px" fill="#000000" x="51.32117387422323" y="3" font-family="sans-serif">DESTINA…</text></g><g class="relationship" transform="translate(46.06044919244834 335.31375864278823) rotate(313.4696157806733)"><path class="outline" fill="#A5ABB6" stroke="none" d="M 25 0.5 L 36.87486442014386 0.5 L 36.87486442014386 -0.5 L 25 -0.5 Z M 71.32017692014387 0.5 L 83.19504134028772 0.5 L 83.19504134028772 3.5 L 90.19504134028772 0 L 83.19504134028772 -3.5 L 83.19504134028772 -0.5 L 71.32017692014387 -0.5 Z"/><text text-anchor="middle" pointer-events="none" font-size="8px" fill="#000000" x="54.09752067014386" y="3" font-family="sans-serif">ORIGIN</text></g></g><g class="layer nodes"><g class="node" transform="translate(134.81335087255732,399.69051580833803)"><circle class="outline" cx="0" cy="0" r="25" fill="#ECB5C9" stroke="#da7298" stroke-width="2px"/><text text-anchor="middle" pointer-events="none" font-family="sans-serif" dy="1.5625" font-size="25" fill="#2A2C34"/><text text-anchor="middle" pointer-events="none" x="0" y="5" font-size="10px" fill="#2A2C34" font-family="sans-serif"> LAX</text></g><g class="node" transform="translate(42.57857959833987,-145.67647740539405)"><circle class="outline" cx="0" cy="0" r="25" fill="#ECB5C9" stroke="#da7298" stroke-width="2px"/><text text-anchor="middle" pointer-events="none" font-family="sans-serif" dy="1.5625" font-size="25" fill="#2A2C34"/><text text-anchor="middle" pointer-events="none" x="0" y="5" font-size="10px" fill="#2A2C34" font-family="sans-serif"> DAY</text></g><g class="node" transform="translate(215.5372725953648,322.3686390555288)"><circle class="outline" cx="0" cy="0" r="25" fill="#4C8EDA" stroke="#2870c2" stroke-width="2px"/><text text-anchor="middle" pointer-events="none" font-family="sans-serif" dy="1.5625" font-size="25" fill="#FFFFFF"/><text text-anchor="middle" pointer-events="none" x="0" y="5" font-size="10px" fill="#FFFFFF" font-family="sans-serif"> 11/30/20…</text></g><g class="node" transform="translate(125.31115983939411,251.71218921167844)"><circle class="outline" cx="0" cy="0" r="25" fill="#ECB5C9" stroke="#da7298" stroke-width="2px"/><text text-anchor="middle" pointer-events="none" font-family="sans-serif" dy="1.5625" font-size="25" fill="#2A2C34"/><text text-anchor="middle" pointer-events="none" x="0" y="5" font-size="10px" fill="#2A2C34" font-family="sans-serif"> ORD</text></g><g class="node" transform="translate(186.45446654440653,139.73208088398027)"><circle class="outline" cx="0" cy="0" r="25" fill="#4C8EDA" stroke="#2870c2" stroke-width="2px"/><text text-anchor="middle" pointer-events="none" font-family="sans-serif" dy="1.5625" font-size="25" fill="#FFFFFF"/><text text-anchor="middle" pointer-events="none" x="0" y="5" font-size="10px" fill="#FFFFFF" font-family="sans-serif"> 11/30/20…</text></g><g class="node" transform="translate(97.23048379432277,43.961846734987354)"><circle class="outline" cx="0" cy="0" r="25" fill="#ECB5C9" stroke="#da7298" stroke-width="2px"/><text text-anchor="middle" pointer-events="none" font-family="sans-serif" dy="1.5625" font-size="25" fill="#2A2C34"/><text text-anchor="middle" pointer-events="none" x="0" y="5" font-size="10px" fill="#2A2C34" font-family="sans-serif"> MSP</text></g><g class="node" transform="translate(165.98958702344098,-49.2101844343528)"><circle class="outline" cx="0" cy="0" r="25" fill="#4C8EDA" stroke="#2870c2" stroke-width="2px"/><text text-anchor="middle" pointer-events="none" font-family="sans-serif" dy="1.5625" font-size="25" fill="#FFFFFF"/><text text-anchor="middle" pointer-events="none" x="0" y="5" font-size="10px" fill="#FFFFFF" font-family="sans-serif"> 11/23/20…</text></g><g class="node" transform="translate(132.68712985863814,-98.76372030982867)"><circle class="outline" cx="0" cy="0" r="25" fill="#4C8EDA" stroke="#2870c2" stroke-width="2px"/><text text-anchor="middle" pointer-events="none" font-family="sans-serif" dy="1.5625" font-size="25" fill="#FFFFFF"/><text text-anchor="middle" pointer-events="none" x="0" y="5" font-size="10px" fill="#FFFFFF" font-family="sans-serif"> 11/16/20…</text></g><g class="node" transform="translate(116.97001645519536,149.94630833527773)"><circle class="outline" cx="0" cy="0" r="25" fill="#4C8EDA" stroke="#2870c2" stroke-width="2px"/><text text-anchor="middle" pointer-events="none" font-family="sans-serif" dy="1.5625" font-size="25" fill="#FFFFFF"/><text text-anchor="middle" pointer-events="none" x="0" y="5" font-size="10px" fill="#FFFFFF" font-family="sans-serif"> 11/29/20…</text></g><g class="node" transform="translate(39.967429994307956,159.30571733554814)"><circle class="outline" cx="0" cy="0" r="25" fill="#4C8EDA" stroke="#2870c2" stroke-width="2px"/><text text-anchor="middle" pointer-events="none" font-family="sans-serif" dy="1.5625" font-size="25" fill="#FFFFFF"/><text text-anchor="middle" pointer-events="none" x="0" y="5" font-size="10px" fill="#FFFFFF" font-family="sans-serif"> 11/29/20…</text></g><g class="node" transform="translate(28.287533052033503,-45.57085252245827)"><circle class="outline" cx="0" cy="0" r="25" fill="#4C8EDA" stroke="#2870c2" stroke-width="2px"/><text text-anchor="middle" pointer-events="none" font-family="sans-serif" dy="1.5625" font-size="25" fill="#FFFFFF"/><text text-anchor="middle" pointer-events="none" x="0" y="5" font-size="10px" fill="#FFFFFF" font-family="sans-serif"> 11/11/20…</text></g><g class="node" transform="translate(-26.94035028813485,-22.85105494619624)"><circle class="outline" cx="0" cy="0" r="25" fill="#4C8EDA" stroke="#2870c2" stroke-width="2px"/><text text-anchor="middle" pointer-events="none" font-family="sans-serif" dy="1.5625" font-size="25" fill="#FFFFFF"/><text text-anchor="middle" pointer-events="none" x="0" y="5" font-size="10px" fill="#FFFFFF" font-family="sans-serif"> 11/20/20…</text></g><g class="node" transform="translate(87.24365378280694,-57.328408253987085)"><circle class="outline" cx="0" cy="0" r="25" fill="#4C8EDA" stroke="#2870c2" stroke-width="2px"/><text text-anchor="middle" pointer-events="none" font-family="sans-serif" dy="1.5625" font-size="25" fill="#FFFFFF"/><text text-anchor="middle" pointer-events="none" x="0" y="5" font-size="10px" fill="#FFFFFF" font-family="sans-serif"> 11/25/20…</text></g><g class="node" transform="translate(46.06044919244834,335.31375864278823)"><circle class="outline" cx="0" cy="0" r="25" fill="#4C8EDA" stroke="#2870c2" stroke-width="2px"/><text text-anchor="middle" pointer-events="none" font-family="sans-serif" dy="1.5625" font-size="25" fill="#FFFFFF"/><text text-anchor="middle" pointer-events="none" x="0" y="5" font-size="10px" fill="#FFFFFF" font-family="sans-serif"> 11/29/20…</text></g></g></svg>